<mxfile host="app.diagrams.net" modified="2024-05-20T09:12:38.721Z" agent="Mozilla/5.0 (X11; Linux x86_64) AppleWebKit/537.36 (KHTML, like Gecko) Chrome/124.0.0.0 Safari/537.36" etag="887cYdrB0FdYX1zqg9dc" version="24.3.1" type="google" pages="7">
  <diagram id="x9kJtXKdXwtUCXEcqmHD" name="Page-2">
    <mxGraphModel dx="1195" dy="661" grid="1" gridSize="10" guides="1" tooltips="1" connect="1" arrows="1" fold="1" page="1" pageScale="1" pageWidth="1100" pageHeight="850" math="0" shadow="0">
      <root>
        <mxCell id="0" />
        <mxCell id="1" parent="0" />
        <mxCell id="JLV5MB_1Bd0-lvb7gUV_-2" value="" style="shape=umlLifeline;perimeter=lifelinePerimeter;whiteSpace=wrap;html=1;container=1;dropTarget=0;collapsible=0;recursiveResize=0;outlineConnect=0;portConstraint=eastwest;newEdgeStyle={&quot;curved&quot;:0,&quot;rounded&quot;:0};participant=umlActor;" parent="1" vertex="1">
          <mxGeometry x="30" y="40" width="20" height="520" as="geometry" />
        </mxCell>
        <mxCell id="JLV5MB_1Bd0-lvb7gUV_-3" value="MISA Onboard Education Server" style="shape=umlLifeline;perimeter=lifelinePerimeter;whiteSpace=wrap;html=1;container=1;dropTarget=0;collapsible=0;recursiveResize=0;outlineConnect=0;portConstraint=eastwest;newEdgeStyle={&quot;curved&quot;:0,&quot;rounded&quot;:0};fillColor=#ffe6cc;strokeColor=#d79b00;" parent="1" vertex="1">
          <mxGeometry x="440" y="40" width="100" height="520" as="geometry" />
        </mxCell>
        <mxCell id="JLV5MB_1Bd0-lvb7gUV_-13" value="" style="html=1;points=[[0,0,0,0,5],[0,1,0,0,-5],[1,0,0,0,5],[1,1,0,0,-5]];perimeter=orthogonalPerimeter;outlineConnect=0;targetShapes=umlLifeline;portConstraint=eastwest;newEdgeStyle={&quot;curved&quot;:0,&quot;rounded&quot;:0};" parent="JLV5MB_1Bd0-lvb7gUV_-3" vertex="1">
          <mxGeometry x="45" y="153" width="10" height="30" as="geometry" />
        </mxCell>
        <mxCell id="JLV5MB_1Bd0-lvb7gUV_-4" value="MISA Application Client" style="shape=umlLifeline;perimeter=lifelinePerimeter;whiteSpace=wrap;html=1;container=1;dropTarget=0;collapsible=0;recursiveResize=0;outlineConnect=0;portConstraint=eastwest;newEdgeStyle={&quot;curved&quot;:0,&quot;rounded&quot;:0};fillColor=#f8cecc;strokeColor=#b85450;" parent="1" vertex="1">
          <mxGeometry x="120" y="40" width="100" height="520" as="geometry" />
        </mxCell>
        <mxCell id="JLV5MB_1Bd0-lvb7gUV_-6" value="" style="html=1;points=[[0,0,0,0,5],[0,1,0,0,-5],[1,0,0,0,5],[1,1,0,0,-5]];perimeter=orthogonalPerimeter;outlineConnect=0;targetShapes=umlLifeline;portConstraint=eastwest;newEdgeStyle={&quot;curved&quot;:0,&quot;rounded&quot;:0};" parent="JLV5MB_1Bd0-lvb7gUV_-4" vertex="1">
          <mxGeometry x="45" y="99" width="10" height="191" as="geometry" />
        </mxCell>
        <mxCell id="Z1kwCYNKZRrMsURToInd-8" value="" style="html=1;points=[[0,0,0,0,5],[0,1,0,0,-5],[1,0,0,0,5],[1,1,0,0,-5]];perimeter=orthogonalPerimeter;outlineConnect=0;targetShapes=umlLifeline;portConstraint=eastwest;newEdgeStyle={&quot;curved&quot;:0,&quot;rounded&quot;:0};" parent="JLV5MB_1Bd0-lvb7gUV_-4" vertex="1">
          <mxGeometry x="50" y="245" width="10" height="28" as="geometry" />
        </mxCell>
        <mxCell id="Z1kwCYNKZRrMsURToInd-9" value="Gọi thư viện client show popup, truyền theo token&amp;nbsp;" style="html=1;align=left;spacingLeft=2;endArrow=block;rounded=0;edgeStyle=orthogonalEdgeStyle;curved=0;rounded=0;" parent="JLV5MB_1Bd0-lvb7gUV_-4" target="Z1kwCYNKZRrMsURToInd-8" edge="1">
          <mxGeometry relative="1" as="geometry">
            <mxPoint x="55" y="235.0000000000001" as="sourcePoint" />
            <Array as="points">
              <mxPoint x="80" y="235" />
              <mxPoint x="80" y="255" />
            </Array>
          </mxGeometry>
        </mxCell>
        <mxCell id="IJivtEon4_0dBNzwUoaQ-1" value="" style="html=1;points=[[0,0,0,0,5],[0,1,0,0,-5],[1,0,0,0,5],[1,1,0,0,-5]];perimeter=orthogonalPerimeter;outlineConnect=0;targetShapes=umlLifeline;portConstraint=eastwest;newEdgeStyle={&quot;curved&quot;:0,&quot;rounded&quot;:0};" parent="JLV5MB_1Bd0-lvb7gUV_-4" vertex="1">
          <mxGeometry x="45" y="323" width="10" height="150" as="geometry" />
        </mxCell>
        <mxCell id="GKNoWGSo45aI36miWevD-1" value="" style="html=1;points=[[0,0,0,0,5],[0,1,0,0,-5],[1,0,0,0,5],[1,1,0,0,-5]];perimeter=orthogonalPerimeter;outlineConnect=0;targetShapes=umlLifeline;portConstraint=eastwest;newEdgeStyle={&quot;curved&quot;:0,&quot;rounded&quot;:0};" parent="JLV5MB_1Bd0-lvb7gUV_-4" vertex="1">
          <mxGeometry x="50" y="363" width="10" height="30" as="geometry" />
        </mxCell>
        <mxCell id="GKNoWGSo45aI36miWevD-2" value="Thư viện gọi tới code xử lý của dự án thông qua callback" style="html=1;align=left;spacingLeft=2;endArrow=block;rounded=0;edgeStyle=orthogonalEdgeStyle;curved=0;rounded=0;" parent="JLV5MB_1Bd0-lvb7gUV_-4" target="GKNoWGSo45aI36miWevD-1" edge="1">
          <mxGeometry relative="1" as="geometry">
            <mxPoint x="55" y="333" as="sourcePoint" />
            <Array as="points">
              <mxPoint x="55" y="353" />
              <mxPoint x="85" y="353" />
              <mxPoint x="85" y="373" />
            </Array>
          </mxGeometry>
        </mxCell>
        <mxCell id="JLV5MB_1Bd0-lvb7gUV_-5" value="MISA Application&lt;div&gt;Server&lt;/div&gt;" style="shape=umlLifeline;perimeter=lifelinePerimeter;whiteSpace=wrap;html=1;container=1;dropTarget=0;collapsible=0;recursiveResize=0;outlineConnect=0;portConstraint=eastwest;newEdgeStyle={&quot;curved&quot;:0,&quot;rounded&quot;:0};fillColor=#f8cecc;strokeColor=#b85450;" parent="1" vertex="1">
          <mxGeometry x="270" y="40" width="100" height="520" as="geometry" />
        </mxCell>
        <mxCell id="JLV5MB_1Bd0-lvb7gUV_-8" value="" style="html=1;points=[[0,0,0,0,5],[0,1,0,0,-5],[1,0,0,0,5],[1,1,0,0,-5]];perimeter=orthogonalPerimeter;outlineConnect=0;targetShapes=umlLifeline;portConstraint=eastwest;newEdgeStyle={&quot;curved&quot;:0,&quot;rounded&quot;:0};" parent="JLV5MB_1Bd0-lvb7gUV_-5" vertex="1">
          <mxGeometry x="45" y="143" width="10" height="60" as="geometry" />
        </mxCell>
        <mxCell id="GKNoWGSo45aI36miWevD-3" value="" style="html=1;points=[[0,0,0,0,5],[0,1,0,0,-5],[1,0,0,0,5],[1,1,0,0,-5]];perimeter=orthogonalPerimeter;outlineConnect=0;targetShapes=umlLifeline;portConstraint=eastwest;newEdgeStyle={&quot;curved&quot;:0,&quot;rounded&quot;:0};" parent="JLV5MB_1Bd0-lvb7gUV_-5" vertex="1">
          <mxGeometry x="45" y="413" width="10" height="40" as="geometry" />
        </mxCell>
        <mxCell id="GKNoWGSo45aI36miWevD-4" value="Lưu thông tin cho phép hiển thị của người dùng" style="html=1;verticalAlign=bottom;endArrow=block;curved=0;rounded=0;entryX=0;entryY=0;entryDx=0;entryDy=5;" parent="JLV5MB_1Bd0-lvb7gUV_-5" target="GKNoWGSo45aI36miWevD-3" edge="1">
          <mxGeometry x="0.6429" y="5" relative="1" as="geometry">
            <mxPoint x="-95" y="418" as="sourcePoint" />
            <mxPoint as="offset" />
          </mxGeometry>
        </mxCell>
        <mxCell id="GKNoWGSo45aI36miWevD-5" value="return" style="html=1;verticalAlign=bottom;endArrow=open;dashed=1;endSize=8;curved=0;rounded=0;exitX=0;exitY=1;exitDx=0;exitDy=-5;" parent="JLV5MB_1Bd0-lvb7gUV_-5" source="GKNoWGSo45aI36miWevD-3" edge="1">
          <mxGeometry relative="1" as="geometry">
            <mxPoint x="-95" y="448" as="targetPoint" />
          </mxGeometry>
        </mxCell>
        <mxCell id="JLV5MB_1Bd0-lvb7gUV_-7" value="Truy cập phần mềm" style="html=1;verticalAlign=bottom;startArrow=oval;endArrow=block;startSize=8;curved=0;rounded=0;entryX=0;entryY=0;entryDx=0;entryDy=5;" parent="1" target="JLV5MB_1Bd0-lvb7gUV_-6" edge="1">
          <mxGeometry relative="1" as="geometry">
            <mxPoint x="39.81034482758605" y="144.00000000000296" as="sourcePoint" />
          </mxGeometry>
        </mxCell>
        <mxCell id="JLV5MB_1Bd0-lvb7gUV_-9" value="Gọi API lấy thông tin xác thực" style="html=1;verticalAlign=bottom;endArrow=block;curved=0;rounded=0;entryX=0;entryY=0;entryDx=0;entryDy=5;" parent="1" target="JLV5MB_1Bd0-lvb7gUV_-8" edge="1">
          <mxGeometry x="0.2143" y="6" relative="1" as="geometry">
            <mxPoint x="175" y="188" as="sourcePoint" />
            <mxPoint as="offset" />
          </mxGeometry>
        </mxCell>
        <mxCell id="JLV5MB_1Bd0-lvb7gUV_-15" value="return" style="html=1;verticalAlign=bottom;endArrow=open;dashed=1;endSize=8;curved=0;rounded=0;" parent="1" source="JLV5MB_1Bd0-lvb7gUV_-13" target="JLV5MB_1Bd0-lvb7gUV_-8" edge="1">
          <mxGeometry relative="1" as="geometry">
            <mxPoint x="395" y="268" as="targetPoint" />
            <Array as="points">
              <mxPoint x="390" y="223" />
            </Array>
          </mxGeometry>
        </mxCell>
        <mxCell id="JLV5MB_1Bd0-lvb7gUV_-10" value="return" style="html=1;verticalAlign=bottom;endArrow=open;dashed=1;endSize=8;curved=0;rounded=0;exitX=0;exitY=1;exitDx=0;exitDy=-5;" parent="1" source="JLV5MB_1Bd0-lvb7gUV_-8" edge="1">
          <mxGeometry relative="1" as="geometry">
            <mxPoint x="175" y="238" as="targetPoint" />
          </mxGeometry>
        </mxCell>
        <mxCell id="JLV5MB_1Bd0-lvb7gUV_-14" value="Gọi API lấy JWT token&amp;nbsp;" style="html=1;verticalAlign=bottom;endArrow=block;curved=0;rounded=0;entryX=0;entryY=0;entryDx=0;entryDy=5;" parent="1" source="JLV5MB_1Bd0-lvb7gUV_-8" target="JLV5MB_1Bd0-lvb7gUV_-13" edge="1">
          <mxGeometry relative="1" as="geometry">
            <mxPoint x="345" y="198" as="sourcePoint" />
          </mxGeometry>
        </mxCell>
        <mxCell id="IJivtEon4_0dBNzwUoaQ-2" value="Người dùng hoàn tất thao tác popup" style="html=1;verticalAlign=bottom;startArrow=oval;endArrow=block;startSize=8;curved=0;rounded=0;entryX=0;entryY=0;entryDx=0;entryDy=5;" parent="1" target="IJivtEon4_0dBNzwUoaQ-1" edge="1">
          <mxGeometry x="0.2804" y="5" relative="1" as="geometry">
            <mxPoint x="39.66666666666674" y="368.0000000000002" as="sourcePoint" />
            <mxPoint as="offset" />
          </mxGeometry>
        </mxCell>
      </root>
    </mxGraphModel>
  </diagram>
  <diagram id="UiGvT8qpwtDBxa1pvIfX" name="Page-9">
    <mxGraphModel dx="1434" dy="793" grid="1" gridSize="10" guides="1" tooltips="1" connect="1" arrows="1" fold="1" page="1" pageScale="1" pageWidth="1100" pageHeight="850" math="0" shadow="0">
      <root>
        <mxCell id="0" />
        <mxCell id="1" parent="0" />
        <mxCell id="L3jYcdDt8ELKdJV2_WZA-1" value="" style="shape=umlLifeline;perimeter=lifelinePerimeter;whiteSpace=wrap;html=1;container=1;dropTarget=0;collapsible=0;recursiveResize=0;outlineConnect=0;portConstraint=eastwest;newEdgeStyle={&quot;curved&quot;:0,&quot;rounded&quot;:0};participant=umlActor;" parent="1" vertex="1">
          <mxGeometry x="84" y="40" width="20" height="640" as="geometry" />
        </mxCell>
        <mxCell id="L3jYcdDt8ELKdJV2_WZA-2" value="MISA Onboard Education Server" style="shape=umlLifeline;perimeter=lifelinePerimeter;whiteSpace=wrap;html=1;container=1;dropTarget=0;collapsible=0;recursiveResize=0;outlineConnect=0;portConstraint=eastwest;newEdgeStyle={&quot;curved&quot;:0,&quot;rounded&quot;:0};fillColor=#ffe6cc;strokeColor=#d79b00;" parent="1" vertex="1">
          <mxGeometry x="494" y="40" width="100" height="640" as="geometry" />
        </mxCell>
        <mxCell id="L3jYcdDt8ELKdJV2_WZA-3" value="" style="html=1;points=[[0,0,0,0,5],[0,1,0,0,-5],[1,0,0,0,5],[1,1,0,0,-5]];perimeter=orthogonalPerimeter;outlineConnect=0;targetShapes=umlLifeline;portConstraint=eastwest;newEdgeStyle={&quot;curved&quot;:0,&quot;rounded&quot;:0};" parent="L3jYcdDt8ELKdJV2_WZA-2" vertex="1">
          <mxGeometry x="45" y="273" width="10" height="30" as="geometry" />
        </mxCell>
        <mxCell id="L3jYcdDt8ELKdJV2_WZA-4" value="MISA Application Client" style="shape=umlLifeline;perimeter=lifelinePerimeter;whiteSpace=wrap;html=1;container=1;dropTarget=0;collapsible=0;recursiveResize=0;outlineConnect=0;portConstraint=eastwest;newEdgeStyle={&quot;curved&quot;:0,&quot;rounded&quot;:0};fillColor=#f8cecc;strokeColor=#b85450;" parent="1" vertex="1">
          <mxGeometry x="174" y="40" width="100" height="640" as="geometry" />
        </mxCell>
        <mxCell id="L3jYcdDt8ELKdJV2_WZA-5" value="" style="html=1;points=[[0,0,0,0,5],[0,1,0,0,-5],[1,0,0,0,5],[1,1,0,0,-5]];perimeter=orthogonalPerimeter;outlineConnect=0;targetShapes=umlLifeline;portConstraint=eastwest;newEdgeStyle={&quot;curved&quot;:0,&quot;rounded&quot;:0};" parent="L3jYcdDt8ELKdJV2_WZA-4" vertex="1">
          <mxGeometry x="45" y="99" width="10" height="311" as="geometry" />
        </mxCell>
        <mxCell id="L3jYcdDt8ELKdJV2_WZA-6" value="" style="html=1;points=[[0,0,0,0,5],[0,1,0,0,-5],[1,0,0,0,5],[1,1,0,0,-5]];perimeter=orthogonalPerimeter;outlineConnect=0;targetShapes=umlLifeline;portConstraint=eastwest;newEdgeStyle={&quot;curved&quot;:0,&quot;rounded&quot;:0};" parent="L3jYcdDt8ELKdJV2_WZA-4" vertex="1">
          <mxGeometry x="50" y="365" width="10" height="28" as="geometry" />
        </mxCell>
        <mxCell id="L3jYcdDt8ELKdJV2_WZA-7" value="Gọi thư viện client show popup, truyền theo token&amp;nbsp;" style="html=1;align=left;spacingLeft=2;endArrow=block;rounded=0;edgeStyle=orthogonalEdgeStyle;curved=0;rounded=0;" parent="L3jYcdDt8ELKdJV2_WZA-4" target="L3jYcdDt8ELKdJV2_WZA-6" edge="1">
          <mxGeometry relative="1" as="geometry">
            <mxPoint x="55" y="355.0000000000001" as="sourcePoint" />
            <Array as="points">
              <mxPoint x="80" y="355" />
              <mxPoint x="80" y="375" />
            </Array>
          </mxGeometry>
        </mxCell>
        <mxCell id="L3jYcdDt8ELKdJV2_WZA-8" value="" style="html=1;points=[[0,0,0,0,5],[0,1,0,0,-5],[1,0,0,0,5],[1,1,0,0,-5]];perimeter=orthogonalPerimeter;outlineConnect=0;targetShapes=umlLifeline;portConstraint=eastwest;newEdgeStyle={&quot;curved&quot;:0,&quot;rounded&quot;:0};" parent="L3jYcdDt8ELKdJV2_WZA-4" vertex="1">
          <mxGeometry x="45" y="450" width="10" height="150" as="geometry" />
        </mxCell>
        <mxCell id="L3jYcdDt8ELKdJV2_WZA-9" value="" style="html=1;points=[[0,0,0,0,5],[0,1,0,0,-5],[1,0,0,0,5],[1,1,0,0,-5]];perimeter=orthogonalPerimeter;outlineConnect=0;targetShapes=umlLifeline;portConstraint=eastwest;newEdgeStyle={&quot;curved&quot;:0,&quot;rounded&quot;:0};" parent="L3jYcdDt8ELKdJV2_WZA-4" vertex="1">
          <mxGeometry x="50" y="490" width="10" height="30" as="geometry" />
        </mxCell>
        <mxCell id="L3jYcdDt8ELKdJV2_WZA-10" value="Thư viện gọi tới code xử lý của dự án thông qua callback" style="html=1;align=left;spacingLeft=2;endArrow=block;rounded=0;edgeStyle=orthogonalEdgeStyle;curved=0;rounded=0;" parent="L3jYcdDt8ELKdJV2_WZA-4" target="L3jYcdDt8ELKdJV2_WZA-9" edge="1">
          <mxGeometry relative="1" as="geometry">
            <mxPoint x="55" y="460" as="sourcePoint" />
            <Array as="points">
              <mxPoint x="55" y="480" />
              <mxPoint x="85" y="480" />
              <mxPoint x="85" y="500" />
            </Array>
          </mxGeometry>
        </mxCell>
        <mxCell id="L3jYcdDt8ELKdJV2_WZA-11" value="MISA Application&lt;div&gt;Server&lt;/div&gt;" style="shape=umlLifeline;perimeter=lifelinePerimeter;whiteSpace=wrap;html=1;container=1;dropTarget=0;collapsible=0;recursiveResize=0;outlineConnect=0;portConstraint=eastwest;newEdgeStyle={&quot;curved&quot;:0,&quot;rounded&quot;:0};fillColor=#f8cecc;strokeColor=#b85450;" parent="1" vertex="1">
          <mxGeometry x="324" y="40" width="100" height="640" as="geometry" />
        </mxCell>
        <mxCell id="L3jYcdDt8ELKdJV2_WZA-12" value="" style="html=1;points=[[0,0,0,0,5],[0,1,0,0,-5],[1,0,0,0,5],[1,1,0,0,-5]];perimeter=orthogonalPerimeter;outlineConnect=0;targetShapes=umlLifeline;portConstraint=eastwest;newEdgeStyle={&quot;curved&quot;:0,&quot;rounded&quot;:0};" parent="L3jYcdDt8ELKdJV2_WZA-11" vertex="1">
          <mxGeometry x="45" y="263" width="10" height="60" as="geometry" />
        </mxCell>
        <mxCell id="L3jYcdDt8ELKdJV2_WZA-13" value="" style="html=1;points=[[0,0,0,0,5],[0,1,0,0,-5],[1,0,0,0,5],[1,1,0,0,-5]];perimeter=orthogonalPerimeter;outlineConnect=0;targetShapes=umlLifeline;portConstraint=eastwest;newEdgeStyle={&quot;curved&quot;:0,&quot;rounded&quot;:0};" parent="L3jYcdDt8ELKdJV2_WZA-11" vertex="1">
          <mxGeometry x="45" y="140" width="10" height="45" as="geometry" />
        </mxCell>
        <mxCell id="L3jYcdDt8ELKdJV2_WZA-14" value="" style="html=1;points=[[0,0,0,0,5],[0,1,0,0,-5],[1,0,0,0,5],[1,1,0,0,-5]];perimeter=orthogonalPerimeter;outlineConnect=0;targetShapes=umlLifeline;portConstraint=eastwest;newEdgeStyle={&quot;curved&quot;:0,&quot;rounded&quot;:0};" parent="L3jYcdDt8ELKdJV2_WZA-11" vertex="1">
          <mxGeometry x="45" y="540" width="10" height="40" as="geometry" />
        </mxCell>
        <mxCell id="L3jYcdDt8ELKdJV2_WZA-15" value="Lưu thông tin cho phép hiển thị của người dùng" style="html=1;verticalAlign=bottom;endArrow=block;curved=0;rounded=0;entryX=0;entryY=0;entryDx=0;entryDy=5;" parent="L3jYcdDt8ELKdJV2_WZA-11" target="L3jYcdDt8ELKdJV2_WZA-14" edge="1">
          <mxGeometry x="0.6429" y="5" relative="1" as="geometry">
            <mxPoint x="-95" y="545" as="sourcePoint" />
            <mxPoint as="offset" />
          </mxGeometry>
        </mxCell>
        <mxCell id="L3jYcdDt8ELKdJV2_WZA-16" value="return" style="html=1;verticalAlign=bottom;endArrow=open;dashed=1;endSize=8;curved=0;rounded=0;exitX=0;exitY=1;exitDx=0;exitDy=-5;" parent="L3jYcdDt8ELKdJV2_WZA-11" source="L3jYcdDt8ELKdJV2_WZA-14" edge="1">
          <mxGeometry relative="1" as="geometry">
            <mxPoint x="-95" y="575" as="targetPoint" />
          </mxGeometry>
        </mxCell>
        <mxCell id="L3jYcdDt8ELKdJV2_WZA-17" value="Truy cập phần mềm" style="html=1;verticalAlign=bottom;startArrow=oval;endArrow=block;startSize=8;curved=0;rounded=0;entryX=0;entryY=0;entryDx=0;entryDy=5;" parent="1" target="L3jYcdDt8ELKdJV2_WZA-5" edge="1">
          <mxGeometry relative="1" as="geometry">
            <mxPoint x="93.81034482758605" y="144.00000000000296" as="sourcePoint" />
          </mxGeometry>
        </mxCell>
        <mxCell id="L3jYcdDt8ELKdJV2_WZA-18" value="Gọi API lấy thông tin xác thực" style="html=1;verticalAlign=bottom;endArrow=block;curved=0;rounded=0;entryX=0;entryY=0;entryDx=0;entryDy=5;" parent="1" target="L3jYcdDt8ELKdJV2_WZA-12" edge="1">
          <mxGeometry x="0.2143" y="6" relative="1" as="geometry">
            <mxPoint x="229" y="308" as="sourcePoint" />
            <mxPoint as="offset" />
          </mxGeometry>
        </mxCell>
        <mxCell id="L3jYcdDt8ELKdJV2_WZA-19" value="return" style="html=1;verticalAlign=bottom;endArrow=open;dashed=1;endSize=8;curved=0;rounded=0;" parent="1" source="L3jYcdDt8ELKdJV2_WZA-3" target="L3jYcdDt8ELKdJV2_WZA-12" edge="1">
          <mxGeometry relative="1" as="geometry">
            <mxPoint x="449" y="388" as="targetPoint" />
            <Array as="points">
              <mxPoint x="444" y="343" />
            </Array>
          </mxGeometry>
        </mxCell>
        <mxCell id="L3jYcdDt8ELKdJV2_WZA-20" value="return" style="html=1;verticalAlign=bottom;endArrow=open;dashed=1;endSize=8;curved=0;rounded=0;exitX=0;exitY=1;exitDx=0;exitDy=-5;" parent="1" source="L3jYcdDt8ELKdJV2_WZA-12" edge="1">
          <mxGeometry relative="1" as="geometry">
            <mxPoint x="229" y="358" as="targetPoint" />
          </mxGeometry>
        </mxCell>
        <mxCell id="L3jYcdDt8ELKdJV2_WZA-21" value="Gọi API lấy JWT token&amp;nbsp;" style="html=1;verticalAlign=bottom;endArrow=block;curved=0;rounded=0;entryX=0;entryY=0;entryDx=0;entryDy=5;" parent="1" source="L3jYcdDt8ELKdJV2_WZA-12" target="L3jYcdDt8ELKdJV2_WZA-3" edge="1">
          <mxGeometry relative="1" as="geometry">
            <mxPoint x="399" y="318" as="sourcePoint" />
          </mxGeometry>
        </mxCell>
        <mxCell id="L3jYcdDt8ELKdJV2_WZA-22" value="Lấy thông tin cho phép hiển thị popup hiện tại của người dùng" style="html=1;verticalAlign=bottom;endArrow=block;curved=0;rounded=0;align=left;" parent="1" source="L3jYcdDt8ELKdJV2_WZA-5" target="L3jYcdDt8ELKdJV2_WZA-13" edge="1">
          <mxGeometry x="-0.7857" relative="1" as="geometry">
            <mxPoint x="229.00000000000006" y="180" as="sourcePoint" />
            <mxPoint x="369" y="180" as="targetPoint" />
            <mxPoint as="offset" />
            <Array as="points">
              <mxPoint x="294" y="180" />
            </Array>
          </mxGeometry>
        </mxCell>
        <mxCell id="L3jYcdDt8ELKdJV2_WZA-23" value="return" style="html=1;verticalAlign=bottom;endArrow=open;dashed=1;endSize=8;curved=0;rounded=0;" parent="1" source="L3jYcdDt8ELKdJV2_WZA-13" target="L3jYcdDt8ELKdJV2_WZA-5" edge="1">
          <mxGeometry relative="1" as="geometry">
            <mxPoint x="244" y="225" as="targetPoint" />
            <mxPoint x="534" y="318.9999999999998" as="sourcePoint" />
            <Array as="points">
              <mxPoint x="334" y="225" />
            </Array>
          </mxGeometry>
        </mxCell>
        <mxCell id="L3jYcdDt8ELKdJV2_WZA-24" value="Người dùng hoàn tất thao tác popup" style="html=1;verticalAlign=bottom;startArrow=oval;endArrow=block;startSize=8;curved=0;rounded=0;entryX=0;entryY=0;entryDx=0;entryDy=5;" parent="1" source="L3jYcdDt8ELKdJV2_WZA-1" target="L3jYcdDt8ELKdJV2_WZA-8" edge="1">
          <mxGeometry x="0.2804" y="5" relative="1" as="geometry">
            <mxPoint x="149" y="495" as="sourcePoint" />
            <mxPoint as="offset" />
          </mxGeometry>
        </mxCell>
        <mxCell id="9YjE4lC87IoVluue9pGN-1" value="alt" style="shape=umlFrame;whiteSpace=wrap;html=1;pointerEvents=0;" parent="1" vertex="1">
          <mxGeometry x="64" y="250" width="580" height="400" as="geometry" />
        </mxCell>
        <mxCell id="T41vHUPPAjkTlvLR81D1-1" value="[Người dùng cho phép popup hiển thị lại]" style="text;html=1;align=left;verticalAlign=middle;resizable=0;points=[];autosize=1;strokeColor=none;fillColor=none;labelBackgroundColor=default;" parent="1" vertex="1">
          <mxGeometry x="129" y="250" width="240" height="30" as="geometry" />
        </mxCell>
      </root>
    </mxGraphModel>
  </diagram>
  <diagram id="tQRPG5D1qE1P_wtRT54u" name="Page-3">
    <mxGraphModel dx="1434" dy="793" grid="1" gridSize="10" guides="1" tooltips="1" connect="1" arrows="1" fold="1" page="1" pageScale="1" pageWidth="1100" pageHeight="850" math="0" shadow="0">
      <root>
        <mxCell id="0" />
        <mxCell id="1" parent="0" />
        <mxCell id="GkJlPDbmAL1OhKkmW-kD-2" value="" style="shape=umlLifeline;perimeter=lifelinePerimeter;whiteSpace=wrap;html=1;container=1;dropTarget=0;collapsible=0;recursiveResize=0;outlineConnect=0;portConstraint=eastwest;newEdgeStyle={&quot;curved&quot;:0,&quot;rounded&quot;:0};participant=umlActor;" parent="1" vertex="1">
          <mxGeometry x="30" y="40" width="20" height="360" as="geometry" />
        </mxCell>
        <mxCell id="GkJlPDbmAL1OhKkmW-kD-3" value="MISA Education Portal" style="shape=umlLifeline;perimeter=lifelinePerimeter;whiteSpace=wrap;html=1;container=1;dropTarget=0;collapsible=0;recursiveResize=0;outlineConnect=0;portConstraint=eastwest;newEdgeStyle={&quot;curved&quot;:0,&quot;rounded&quot;:0};fillColor=#ffe6cc;strokeColor=#d79b00;" parent="1" vertex="1">
          <mxGeometry x="425" y="40" width="100" height="360" as="geometry" />
        </mxCell>
        <mxCell id="GkJlPDbmAL1OhKkmW-kD-4" value="" style="html=1;points=[[0,0,0,0,5],[0,1,0,0,-5],[1,0,0,0,5],[1,1,0,0,-5]];perimeter=orthogonalPerimeter;outlineConnect=0;targetShapes=umlLifeline;portConstraint=eastwest;newEdgeStyle={&quot;curved&quot;:0,&quot;rounded&quot;:0};" parent="GkJlPDbmAL1OhKkmW-kD-3" vertex="1">
          <mxGeometry x="45" y="100" width="10" height="150" as="geometry" />
        </mxCell>
        <mxCell id="AYe8SgDpaqFlVBR-bnJm-4" value="" style="html=1;points=[[0,0,0,0,5],[0,1,0,0,-5],[1,0,0,0,5],[1,1,0,0,-5]];perimeter=orthogonalPerimeter;outlineConnect=0;targetShapes=umlLifeline;portConstraint=eastwest;newEdgeStyle={&quot;curved&quot;:0,&quot;rounded&quot;:0};" parent="GkJlPDbmAL1OhKkmW-kD-3" vertex="1">
          <mxGeometry x="50" y="130" width="10" height="30" as="geometry" />
        </mxCell>
        <mxCell id="GkJlPDbmAL1OhKkmW-kD-9" value="MISA Application Client" style="shape=umlLifeline;perimeter=lifelinePerimeter;whiteSpace=wrap;html=1;container=1;dropTarget=0;collapsible=0;recursiveResize=0;outlineConnect=0;portConstraint=eastwest;newEdgeStyle={&quot;curved&quot;:0,&quot;rounded&quot;:0};fillColor=#f8cecc;strokeColor=#b85450;" parent="1" vertex="1">
          <mxGeometry x="120" y="40" width="100" height="360" as="geometry" />
        </mxCell>
        <mxCell id="GkJlPDbmAL1OhKkmW-kD-10" value="" style="html=1;points=[[0,0,0,0,5],[0,1,0,0,-5],[1,0,0,0,5],[1,1,0,0,-5]];perimeter=orthogonalPerimeter;outlineConnect=0;targetShapes=umlLifeline;portConstraint=eastwest;newEdgeStyle={&quot;curved&quot;:0,&quot;rounded&quot;:0};" parent="GkJlPDbmAL1OhKkmW-kD-9" vertex="1">
          <mxGeometry x="45" y="70" width="10" height="270" as="geometry" />
        </mxCell>
        <mxCell id="GkJlPDbmAL1OhKkmW-kD-17" value="Chọn không hiển thị lại" style="html=1;verticalAlign=bottom;startArrow=oval;endArrow=block;startSize=8;curved=0;rounded=0;entryX=0;entryY=0;entryDx=0;entryDy=5;" parent="1" source="GkJlPDbmAL1OhKkmW-kD-2" target="GkJlPDbmAL1OhKkmW-kD-10" edge="1">
          <mxGeometry relative="1" as="geometry">
            <mxPoint x="95" y="115" as="sourcePoint" />
          </mxGeometry>
        </mxCell>
        <mxCell id="GkJlPDbmAL1OhKkmW-kD-19" value="return" style="html=1;verticalAlign=bottom;endArrow=open;dashed=1;endSize=8;curved=0;rounded=0;" parent="1" source="GkJlPDbmAL1OhKkmW-kD-4" target="GkJlPDbmAL1OhKkmW-kD-10" edge="1">
          <mxGeometry relative="1" as="geometry">
            <mxPoint x="180" y="240" as="targetPoint" />
            <Array as="points">
              <mxPoint x="390" y="290" />
            </Array>
            <mxPoint x="475" y="240" as="sourcePoint" />
          </mxGeometry>
        </mxCell>
        <mxCell id="GkJlPDbmAL1OhKkmW-kD-21" value="CRM MISA" style="shape=umlLifeline;perimeter=lifelinePerimeter;whiteSpace=wrap;html=1;container=1;dropTarget=0;collapsible=0;recursiveResize=0;outlineConnect=0;portConstraint=eastwest;newEdgeStyle={&quot;curved&quot;:0,&quot;rounded&quot;:0};fillColor=#dae8fc;strokeColor=#6c8ebf;" parent="1" vertex="1">
          <mxGeometry x="720" y="40" width="100" height="360" as="geometry" />
        </mxCell>
        <mxCell id="AYe8SgDpaqFlVBR-bnJm-1" value="" style="html=1;points=[[0,0,0,0,5],[0,1,0,0,-5],[1,0,0,0,5],[1,1,0,0,-5]];perimeter=orthogonalPerimeter;outlineConnect=0;targetShapes=umlLifeline;portConstraint=eastwest;newEdgeStyle={&quot;curved&quot;:0,&quot;rounded&quot;:0};" parent="GkJlPDbmAL1OhKkmW-kD-21" vertex="1">
          <mxGeometry x="45" y="174" width="10" height="60" as="geometry" />
        </mxCell>
        <mxCell id="GkJlPDbmAL1OhKkmW-kD-24" value="" style="html=1;points=[[0,0,0,0,5],[0,1,0,0,-5],[1,0,0,0,5],[1,1,0,0,-5]];perimeter=orthogonalPerimeter;outlineConnect=0;targetShapes=umlLifeline;portConstraint=eastwest;newEdgeStyle={&quot;curved&quot;:0,&quot;rounded&quot;:0};" parent="1" vertex="1">
          <mxGeometry x="170" y="339" width="10" height="30" as="geometry" />
        </mxCell>
        <mxCell id="GkJlPDbmAL1OhKkmW-kD-25" value="Thư viện lưu thông tin cho phép hiện popup vào browser cache" style="html=1;align=left;spacingLeft=2;endArrow=block;rounded=0;edgeStyle=orthogonalEdgeStyle;curved=0;rounded=0;" parent="1" target="GkJlPDbmAL1OhKkmW-kD-24" edge="1">
          <mxGeometry relative="1" as="geometry">
            <mxPoint x="175" y="329.02857142857135" as="sourcePoint" />
            <Array as="points">
              <mxPoint x="200" y="329" />
              <mxPoint x="200" y="349" />
            </Array>
          </mxGeometry>
        </mxCell>
        <mxCell id="GkJlPDbmAL1OhKkmW-kD-5" value="Gọi API cập nhật thông tin đào tạo của người dùng" style="html=1;verticalAlign=bottom;endArrow=block;curved=0;rounded=0;" parent="1" source="GkJlPDbmAL1OhKkmW-kD-10" target="GkJlPDbmAL1OhKkmW-kD-4" edge="1">
          <mxGeometry relative="1" as="geometry">
            <mxPoint x="330" y="145" as="sourcePoint" />
            <Array as="points">
              <mxPoint x="340" y="140" />
            </Array>
            <mxPoint as="offset" />
          </mxGeometry>
        </mxCell>
        <mxCell id="AYe8SgDpaqFlVBR-bnJm-2" value="Gửi dữ liệu sinh thẻ đào tạo" style="html=1;verticalAlign=bottom;endArrow=block;curved=0;rounded=0;entryX=0;entryY=0;entryDx=0;entryDy=5;" parent="1" target="AYe8SgDpaqFlVBR-bnJm-1" edge="1">
          <mxGeometry relative="1" as="geometry">
            <mxPoint x="480" y="219" as="sourcePoint" />
          </mxGeometry>
        </mxCell>
        <mxCell id="AYe8SgDpaqFlVBR-bnJm-3" value="return" style="html=1;verticalAlign=bottom;endArrow=open;dashed=1;endSize=8;curved=0;rounded=0;exitX=0;exitY=1;exitDx=0;exitDy=-5;" parent="1" source="AYe8SgDpaqFlVBR-bnJm-1" target="GkJlPDbmAL1OhKkmW-kD-4" edge="1">
          <mxGeometry relative="1" as="geometry">
            <mxPoint x="480" y="269" as="targetPoint" />
          </mxGeometry>
        </mxCell>
      </root>
    </mxGraphModel>
  </diagram>
  <diagram id="IuafWlP6lVhvJhwXH2A9" name="Page-4">
    <mxGraphModel dx="1434" dy="793" grid="1" gridSize="10" guides="1" tooltips="1" connect="1" arrows="1" fold="1" page="1" pageScale="1" pageWidth="1100" pageHeight="850" math="0" shadow="0">
      <root>
        <mxCell id="0" />
        <mxCell id="1" parent="0" />
        <mxCell id="0rgQDWKSh9yMLHphNXcp-17" value="" style="shape=umlLifeline;perimeter=lifelinePerimeter;whiteSpace=wrap;html=1;container=1;dropTarget=0;collapsible=0;recursiveResize=0;outlineConnect=0;portConstraint=eastwest;newEdgeStyle={&quot;curved&quot;:0,&quot;rounded&quot;:0};participant=umlActor;" parent="1" vertex="1">
          <mxGeometry x="40" y="50" width="20" height="360" as="geometry" />
        </mxCell>
        <mxCell id="0rgQDWKSh9yMLHphNXcp-18" value="MISA Education Portal" style="shape=umlLifeline;perimeter=lifelinePerimeter;whiteSpace=wrap;html=1;container=1;dropTarget=0;collapsible=0;recursiveResize=0;outlineConnect=0;portConstraint=eastwest;newEdgeStyle={&quot;curved&quot;:0,&quot;rounded&quot;:0};fillColor=#ffe6cc;strokeColor=#d79b00;" parent="1" vertex="1">
          <mxGeometry x="435" y="50" width="100" height="360" as="geometry" />
        </mxCell>
        <mxCell id="0rgQDWKSh9yMLHphNXcp-19" value="" style="html=1;points=[[0,0,0,0,5],[0,1,0,0,-5],[1,0,0,0,5],[1,1,0,0,-5]];perimeter=orthogonalPerimeter;outlineConnect=0;targetShapes=umlLifeline;portConstraint=eastwest;newEdgeStyle={&quot;curved&quot;:0,&quot;rounded&quot;:0};" parent="0rgQDWKSh9yMLHphNXcp-18" vertex="1">
          <mxGeometry x="45" y="100" width="10" height="150" as="geometry" />
        </mxCell>
        <mxCell id="0rgQDWKSh9yMLHphNXcp-22" value="MISA Application Client" style="shape=umlLifeline;perimeter=lifelinePerimeter;whiteSpace=wrap;html=1;container=1;dropTarget=0;collapsible=0;recursiveResize=0;outlineConnect=0;portConstraint=eastwest;newEdgeStyle={&quot;curved&quot;:0,&quot;rounded&quot;:0};fillColor=#f8cecc;strokeColor=#b85450;" parent="1" vertex="1">
          <mxGeometry x="130" y="50" width="100" height="360" as="geometry" />
        </mxCell>
        <mxCell id="0rgQDWKSh9yMLHphNXcp-23" value="" style="html=1;points=[[0,0,0,0,5],[0,1,0,0,-5],[1,0,0,0,5],[1,1,0,0,-5]];perimeter=orthogonalPerimeter;outlineConnect=0;targetShapes=umlLifeline;portConstraint=eastwest;newEdgeStyle={&quot;curved&quot;:0,&quot;rounded&quot;:0};" parent="0rgQDWKSh9yMLHphNXcp-22" vertex="1">
          <mxGeometry x="45" y="70" width="10" height="270" as="geometry" />
        </mxCell>
        <mxCell id="0rgQDWKSh9yMLHphNXcp-24" value="Chọn đã biết sử dụng phần mềm" style="html=1;verticalAlign=bottom;startArrow=oval;endArrow=block;startSize=8;curved=0;rounded=0;entryX=0;entryY=0;entryDx=0;entryDy=5;" parent="1" source="0rgQDWKSh9yMLHphNXcp-17" target="0rgQDWKSh9yMLHphNXcp-23" edge="1">
          <mxGeometry x="0.2819" y="5" relative="1" as="geometry">
            <mxPoint x="105" y="125" as="sourcePoint" />
            <mxPoint as="offset" />
          </mxGeometry>
        </mxCell>
        <mxCell id="0rgQDWKSh9yMLHphNXcp-25" value="return" style="html=1;verticalAlign=bottom;endArrow=open;dashed=1;endSize=8;curved=0;rounded=0;" parent="1" source="0rgQDWKSh9yMLHphNXcp-19" target="0rgQDWKSh9yMLHphNXcp-23" edge="1">
          <mxGeometry relative="1" as="geometry">
            <mxPoint x="190" y="250" as="targetPoint" />
            <Array as="points">
              <mxPoint x="400" y="300" />
            </Array>
            <mxPoint x="485" y="250" as="sourcePoint" />
          </mxGeometry>
        </mxCell>
        <mxCell id="0rgQDWKSh9yMLHphNXcp-26" value="CRM MISA" style="shape=umlLifeline;perimeter=lifelinePerimeter;whiteSpace=wrap;html=1;container=1;dropTarget=0;collapsible=0;recursiveResize=0;outlineConnect=0;portConstraint=eastwest;newEdgeStyle={&quot;curved&quot;:0,&quot;rounded&quot;:0};fillColor=#dae8fc;strokeColor=#6c8ebf;" parent="1" vertex="1">
          <mxGeometry x="730" y="50" width="100" height="360" as="geometry" />
        </mxCell>
        <mxCell id="0rgQDWKSh9yMLHphNXcp-27" value="" style="html=1;points=[[0,0,0,0,5],[0,1,0,0,-5],[1,0,0,0,5],[1,1,0,0,-5]];perimeter=orthogonalPerimeter;outlineConnect=0;targetShapes=umlLifeline;portConstraint=eastwest;newEdgeStyle={&quot;curved&quot;:0,&quot;rounded&quot;:0};" parent="0rgQDWKSh9yMLHphNXcp-26" vertex="1">
          <mxGeometry x="45" y="174" width="10" height="60" as="geometry" />
        </mxCell>
        <mxCell id="0rgQDWKSh9yMLHphNXcp-28" value="" style="html=1;points=[[0,0,0,0,5],[0,1,0,0,-5],[1,0,0,0,5],[1,1,0,0,-5]];perimeter=orthogonalPerimeter;outlineConnect=0;targetShapes=umlLifeline;portConstraint=eastwest;newEdgeStyle={&quot;curved&quot;:0,&quot;rounded&quot;:0};" parent="1" vertex="1">
          <mxGeometry x="180" y="349" width="10" height="30" as="geometry" />
        </mxCell>
        <mxCell id="0rgQDWKSh9yMLHphNXcp-29" value="Thư viện lưu thông tin cho phép hiện popup vào browser cache" style="html=1;align=left;spacingLeft=2;endArrow=block;rounded=0;edgeStyle=orthogonalEdgeStyle;curved=0;rounded=0;" parent="1" target="0rgQDWKSh9yMLHphNXcp-28" edge="1">
          <mxGeometry relative="1" as="geometry">
            <mxPoint x="185" y="339.02857142857135" as="sourcePoint" />
            <Array as="points">
              <mxPoint x="210" y="339" />
              <mxPoint x="210" y="359" />
            </Array>
          </mxGeometry>
        </mxCell>
        <mxCell id="0rgQDWKSh9yMLHphNXcp-30" value="Gọi API cập nhật thông tin đào tạo của người dùng" style="html=1;verticalAlign=bottom;endArrow=block;curved=0;rounded=0;" parent="1" source="0rgQDWKSh9yMLHphNXcp-23" target="0rgQDWKSh9yMLHphNXcp-19" edge="1">
          <mxGeometry relative="1" as="geometry">
            <mxPoint x="340" y="155" as="sourcePoint" />
            <Array as="points">
              <mxPoint x="350" y="150" />
            </Array>
            <mxPoint as="offset" />
          </mxGeometry>
        </mxCell>
        <mxCell id="0rgQDWKSh9yMLHphNXcp-31" value="Gửi dữ liệu sinh thẻ đào tạo" style="html=1;verticalAlign=bottom;endArrow=block;curved=0;rounded=0;entryX=0;entryY=0;entryDx=0;entryDy=5;" parent="1" target="0rgQDWKSh9yMLHphNXcp-27" edge="1">
          <mxGeometry relative="1" as="geometry">
            <mxPoint x="490" y="229" as="sourcePoint" />
          </mxGeometry>
        </mxCell>
        <mxCell id="0rgQDWKSh9yMLHphNXcp-32" value="return" style="html=1;verticalAlign=bottom;endArrow=open;dashed=1;endSize=8;curved=0;rounded=0;exitX=0;exitY=1;exitDx=0;exitDy=-5;" parent="1" source="0rgQDWKSh9yMLHphNXcp-27" target="0rgQDWKSh9yMLHphNXcp-19" edge="1">
          <mxGeometry relative="1" as="geometry">
            <mxPoint x="490" y="279" as="targetPoint" />
          </mxGeometry>
        </mxCell>
      </root>
    </mxGraphModel>
  </diagram>
  <diagram id="rIOn2jUbp93YK0PrsyqU" name="Page-5">
    <mxGraphModel dx="1434" dy="793" grid="1" gridSize="10" guides="1" tooltips="1" connect="1" arrows="1" fold="1" page="1" pageScale="1" pageWidth="1100" pageHeight="850" math="0" shadow="0">
      <root>
        <mxCell id="0" />
        <mxCell id="1" parent="0" />
        <mxCell id="uYwcoocsZfonx6tzC9ZS-1" value="" style="shape=umlLifeline;perimeter=lifelinePerimeter;whiteSpace=wrap;html=1;container=1;dropTarget=0;collapsible=0;recursiveResize=0;outlineConnect=0;portConstraint=eastwest;newEdgeStyle={&quot;curved&quot;:0,&quot;rounded&quot;:0};participant=umlActor;" parent="1" vertex="1">
          <mxGeometry x="40" y="50" width="20" height="550" as="geometry" />
        </mxCell>
        <mxCell id="uYwcoocsZfonx6tzC9ZS-2" value="MISA Education Portal" style="shape=umlLifeline;perimeter=lifelinePerimeter;whiteSpace=wrap;html=1;container=1;dropTarget=0;collapsible=0;recursiveResize=0;outlineConnect=0;portConstraint=eastwest;newEdgeStyle={&quot;curved&quot;:0,&quot;rounded&quot;:0};fillColor=#ffe6cc;strokeColor=#d79b00;" parent="1" vertex="1">
          <mxGeometry x="410" y="50" width="100" height="550" as="geometry" />
        </mxCell>
        <mxCell id="uYwcoocsZfonx6tzC9ZS-3" value="" style="html=1;points=[[0,0,0,0,5],[0,1,0,0,-5],[1,0,0,0,5],[1,1,0,0,-5]];perimeter=orthogonalPerimeter;outlineConnect=0;targetShapes=umlLifeline;portConstraint=eastwest;newEdgeStyle={&quot;curved&quot;:0,&quot;rounded&quot;:0};" parent="uYwcoocsZfonx6tzC9ZS-2" vertex="1">
          <mxGeometry x="45" y="100" width="10" height="310" as="geometry" />
        </mxCell>
        <mxCell id="uYwcoocsZfonx6tzC9ZS-6" value="MISA Application Client" style="shape=umlLifeline;perimeter=lifelinePerimeter;whiteSpace=wrap;html=1;container=1;dropTarget=0;collapsible=0;recursiveResize=0;outlineConnect=0;portConstraint=eastwest;newEdgeStyle={&quot;curved&quot;:0,&quot;rounded&quot;:0};fillColor=#f8cecc;strokeColor=#b85450;" parent="1" vertex="1">
          <mxGeometry x="130" y="50" width="100" height="550" as="geometry" />
        </mxCell>
        <mxCell id="uYwcoocsZfonx6tzC9ZS-7" value="" style="html=1;points=[[0,0,0,0,5],[0,1,0,0,-5],[1,0,0,0,5],[1,1,0,0,-5]];perimeter=orthogonalPerimeter;outlineConnect=0;targetShapes=umlLifeline;portConstraint=eastwest;newEdgeStyle={&quot;curved&quot;:0,&quot;rounded&quot;:0};" parent="uYwcoocsZfonx6tzC9ZS-6" vertex="1">
          <mxGeometry x="45" y="70" width="10" height="460" as="geometry" />
        </mxCell>
        <mxCell id="uYwcoocsZfonx6tzC9ZS-8" value="Chọn tự học phần mềm" style="html=1;verticalAlign=bottom;startArrow=oval;endArrow=block;startSize=8;curved=0;rounded=0;entryX=0;entryY=0;entryDx=0;entryDy=5;" parent="1" source="uYwcoocsZfonx6tzC9ZS-1" target="uYwcoocsZfonx6tzC9ZS-7" edge="1">
          <mxGeometry x="-0.0384" relative="1" as="geometry">
            <mxPoint x="105" y="125" as="sourcePoint" />
            <mxPoint as="offset" />
          </mxGeometry>
        </mxCell>
        <mxCell id="uYwcoocsZfonx6tzC9ZS-9" value="return" style="html=1;verticalAlign=bottom;endArrow=open;dashed=1;endSize=8;curved=0;rounded=0;" parent="1" edge="1">
          <mxGeometry relative="1" as="geometry">
            <mxPoint x="185" y="456" as="targetPoint" />
            <Array as="points">
              <mxPoint x="400" y="456" />
            </Array>
            <mxPoint x="455" y="456" as="sourcePoint" />
          </mxGeometry>
        </mxCell>
        <mxCell id="uYwcoocsZfonx6tzC9ZS-10" value="CRM MISA" style="shape=umlLifeline;perimeter=lifelinePerimeter;whiteSpace=wrap;html=1;container=1;dropTarget=0;collapsible=0;recursiveResize=0;outlineConnect=0;portConstraint=eastwest;newEdgeStyle={&quot;curved&quot;:0,&quot;rounded&quot;:0};fillColor=#dae8fc;strokeColor=#6c8ebf;" parent="1" vertex="1">
          <mxGeometry x="930" y="50" width="100" height="550" as="geometry" />
        </mxCell>
        <mxCell id="9Av-_aqw04MK_AtMW8wI-9" value="" style="html=1;points=[[0,0,0,0,5],[0,1,0,0,-5],[1,0,0,0,5],[1,1,0,0,-5]];perimeter=orthogonalPerimeter;outlineConnect=0;targetShapes=umlLifeline;portConstraint=eastwest;newEdgeStyle={&quot;curved&quot;:0,&quot;rounded&quot;:0};" parent="uYwcoocsZfonx6tzC9ZS-10" vertex="1">
          <mxGeometry x="45" y="330" width="10" height="50" as="geometry" />
        </mxCell>
        <mxCell id="uYwcoocsZfonx6tzC9ZS-12" value="" style="html=1;points=[[0,0,0,0,5],[0,1,0,0,-5],[1,0,0,0,5],[1,1,0,0,-5]];perimeter=orthogonalPerimeter;outlineConnect=0;targetShapes=umlLifeline;portConstraint=eastwest;newEdgeStyle={&quot;curved&quot;:0,&quot;rounded&quot;:0};" parent="1" vertex="1">
          <mxGeometry x="180" y="536" width="10" height="30" as="geometry" />
        </mxCell>
        <mxCell id="uYwcoocsZfonx6tzC9ZS-13" value="Thư viện lưu thông tin cho phép hiện popup vào browser cache" style="html=1;align=left;spacingLeft=2;endArrow=block;rounded=0;edgeStyle=orthogonalEdgeStyle;curved=0;rounded=0;" parent="1" target="uYwcoocsZfonx6tzC9ZS-12" edge="1">
          <mxGeometry relative="1" as="geometry">
            <mxPoint x="185" y="526.0285714285714" as="sourcePoint" />
            <Array as="points">
              <mxPoint x="210" y="526" />
              <mxPoint x="210" y="546" />
            </Array>
            <mxPoint as="offset" />
          </mxGeometry>
        </mxCell>
        <mxCell id="uYwcoocsZfonx6tzC9ZS-14" value="Gọi API cập nhật thông tin đào tạo của người dùng" style="html=1;verticalAlign=bottom;endArrow=block;curved=0;rounded=0;" parent="1" source="uYwcoocsZfonx6tzC9ZS-7" target="uYwcoocsZfonx6tzC9ZS-3" edge="1">
          <mxGeometry relative="1" as="geometry">
            <mxPoint x="340" y="155" as="sourcePoint" />
            <Array as="points">
              <mxPoint x="350" y="150" />
            </Array>
            <mxPoint as="offset" />
          </mxGeometry>
        </mxCell>
        <mxCell id="9Av-_aqw04MK_AtMW8wI-1" value="LMS Server" style="shape=umlLifeline;perimeter=lifelinePerimeter;whiteSpace=wrap;html=1;container=1;dropTarget=0;collapsible=0;recursiveResize=0;outlineConnect=0;portConstraint=eastwest;newEdgeStyle={&quot;curved&quot;:0,&quot;rounded&quot;:0};fillColor=#d5e8d4;strokeColor=#82b366;" parent="1" vertex="1">
          <mxGeometry x="760" y="50" width="100" height="550" as="geometry" />
        </mxCell>
        <mxCell id="9Av-_aqw04MK_AtMW8wI-4" value="" style="html=1;points=[[0,0,0,0,5],[0,1,0,0,-5],[1,0,0,0,5],[1,1,0,0,-5]];perimeter=orthogonalPerimeter;outlineConnect=0;targetShapes=umlLifeline;portConstraint=eastwest;newEdgeStyle={&quot;curved&quot;:0,&quot;rounded&quot;:0};" parent="9Av-_aqw04MK_AtMW8wI-1" vertex="1">
          <mxGeometry x="45" y="178" width="10" height="100" as="geometry" />
        </mxCell>
        <mxCell id="9Av-_aqw04MK_AtMW8wI-3" value="redirect" style="html=1;verticalAlign=bottom;endArrow=block;curved=0;rounded=0;" parent="1" target="9Av-_aqw04MK_AtMW8wI-13" edge="1">
          <mxGeometry width="80" relative="1" as="geometry">
            <mxPoint x="185" y="495.9999999999998" as="sourcePoint" />
            <mxPoint x="704.9999999999998" y="495.9999999999999" as="targetPoint" />
          </mxGeometry>
        </mxCell>
        <mxCell id="9Av-_aqw04MK_AtMW8wI-5" value="Gọi API đăng ký khóa học" style="html=1;verticalAlign=bottom;endArrow=block;curved=0;rounded=0;entryX=0;entryY=0;entryDx=0;entryDy=5;" parent="1" target="9Av-_aqw04MK_AtMW8wI-4" edge="1">
          <mxGeometry relative="1" as="geometry">
            <mxPoint x="465" y="233" as="sourcePoint" />
          </mxGeometry>
        </mxCell>
        <mxCell id="9Av-_aqw04MK_AtMW8wI-6" value="return" style="html=1;verticalAlign=bottom;endArrow=open;dashed=1;endSize=8;curved=0;rounded=0;" parent="1" source="9Av-_aqw04MK_AtMW8wI-4" edge="1">
          <mxGeometry x="0.0003" relative="1" as="geometry">
            <mxPoint x="465" y="328" as="targetPoint" />
            <mxPoint x="909.9999999999998" y="327.9999999999999" as="sourcePoint" />
            <mxPoint as="offset" />
          </mxGeometry>
        </mxCell>
        <mxCell id="9Av-_aqw04MK_AtMW8wI-10" value="Gửi dữ liệu sinh thẻ đào tạo" style="html=1;verticalAlign=bottom;endArrow=block;curved=0;rounded=0;" parent="1" source="uYwcoocsZfonx6tzC9ZS-3" target="9Av-_aqw04MK_AtMW8wI-9" edge="1">
          <mxGeometry relative="1" as="geometry">
            <mxPoint x="849.9999999999998" y="257.9999999999999" as="sourcePoint" />
            <Array as="points" />
          </mxGeometry>
        </mxCell>
        <mxCell id="9Av-_aqw04MK_AtMW8wI-11" value="return" style="html=1;verticalAlign=bottom;endArrow=open;dashed=1;endSize=8;curved=0;rounded=0;" parent="1" source="9Av-_aqw04MK_AtMW8wI-9" target="uYwcoocsZfonx6tzC9ZS-3" edge="1">
          <mxGeometry relative="1" as="geometry">
            <mxPoint x="839.9999999999998" y="297.9999999999999" as="targetPoint" />
            <Array as="points">
              <mxPoint x="880" y="430" />
            </Array>
          </mxGeometry>
        </mxCell>
        <mxCell id="9Av-_aqw04MK_AtMW8wI-12" value="LMS Client" style="shape=umlLifeline;perimeter=lifelinePerimeter;whiteSpace=wrap;html=1;container=1;dropTarget=0;collapsible=0;recursiveResize=0;outlineConnect=0;portConstraint=eastwest;newEdgeStyle={&quot;curved&quot;:0,&quot;rounded&quot;:0};fillColor=#d5e8d4;strokeColor=#82b366;" parent="1" vertex="1">
          <mxGeometry x="590" y="50" width="100" height="550" as="geometry" />
        </mxCell>
        <mxCell id="9Av-_aqw04MK_AtMW8wI-13" value="" style="html=1;points=[[0,0,0,0,5],[0,1,0,0,-5],[1,0,0,0,5],[1,1,0,0,-5]];perimeter=orthogonalPerimeter;outlineConnect=0;targetShapes=umlLifeline;portConstraint=eastwest;newEdgeStyle={&quot;curved&quot;:0,&quot;rounded&quot;:0};" parent="9Av-_aqw04MK_AtMW8wI-12" vertex="1">
          <mxGeometry x="45" y="446" width="10" height="20" as="geometry" />
        </mxCell>
      </root>
    </mxGraphModel>
  </diagram>
  <diagram id="vI8Rg0QaUfNbp8k4Kr6i" name="Page-6">
    <mxGraphModel dx="2868" dy="1586" grid="1" gridSize="10" guides="1" tooltips="1" connect="1" arrows="1" fold="1" page="1" pageScale="1" pageWidth="1100" pageHeight="850" math="0" shadow="0">
      <root>
        <mxCell id="0" />
        <mxCell id="1" parent="0" />
        <mxCell id="rz1pc4IVNlFVUv6zrd2w-1" value="" style="shape=umlLifeline;perimeter=lifelinePerimeter;whiteSpace=wrap;html=1;container=1;dropTarget=0;collapsible=0;recursiveResize=0;outlineConnect=0;portConstraint=eastwest;newEdgeStyle={&quot;curved&quot;:0,&quot;rounded&quot;:0};participant=umlActor;" parent="1" vertex="1">
          <mxGeometry x="40" y="50" width="20" height="990" as="geometry" />
        </mxCell>
        <mxCell id="rz1pc4IVNlFVUv6zrd2w-2" value="MISA Education Portal" style="shape=umlLifeline;perimeter=lifelinePerimeter;whiteSpace=wrap;html=1;container=1;dropTarget=0;collapsible=0;recursiveResize=0;outlineConnect=0;portConstraint=eastwest;newEdgeStyle={&quot;curved&quot;:0,&quot;rounded&quot;:0};fillColor=#ffe6cc;strokeColor=#d79b00;" parent="1" vertex="1">
          <mxGeometry x="410" y="50" width="100" height="990" as="geometry" />
        </mxCell>
        <mxCell id="rz1pc4IVNlFVUv6zrd2w-3" value="" style="html=1;points=[[0,0,0,0,5],[0,1,0,0,-5],[1,0,0,0,5],[1,1,0,0,-5]];perimeter=orthogonalPerimeter;outlineConnect=0;targetShapes=umlLifeline;portConstraint=eastwest;newEdgeStyle={&quot;curved&quot;:0,&quot;rounded&quot;:0};" parent="rz1pc4IVNlFVUv6zrd2w-2" vertex="1">
          <mxGeometry x="45" y="534" width="10" height="296" as="geometry" />
        </mxCell>
        <mxCell id="rz1pc4IVNlFVUv6zrd2w-4" value="" style="html=1;points=[[0,0,0,0,5],[0,1,0,0,-5],[1,0,0,0,5],[1,1,0,0,-5]];perimeter=orthogonalPerimeter;outlineConnect=0;targetShapes=umlLifeline;portConstraint=eastwest;newEdgeStyle={&quot;curved&quot;:0,&quot;rounded&quot;:0};" parent="rz1pc4IVNlFVUv6zrd2w-2" vertex="1">
          <mxGeometry x="50" y="564" width="10" height="30" as="geometry" />
        </mxCell>
        <mxCell id="rz1pc4IVNlFVUv6zrd2w-5" value="Lưu thông tin người dùng vào DB" style="html=1;align=left;spacingLeft=2;endArrow=block;rounded=0;edgeStyle=orthogonalEdgeStyle;curved=0;rounded=0;" parent="rz1pc4IVNlFVUv6zrd2w-2" source="rz1pc4IVNlFVUv6zrd2w-3" target="rz1pc4IVNlFVUv6zrd2w-4" edge="1">
          <mxGeometry relative="1" as="geometry">
            <mxPoint x="60" y="554.0285714285714" as="sourcePoint" />
            <Array as="points">
              <mxPoint x="85" y="554" />
              <mxPoint x="85" y="574" />
            </Array>
          </mxGeometry>
        </mxCell>
        <mxCell id="rz1pc4IVNlFVUv6zrd2w-32" value="" style="html=1;points=[[0,0,0,0,5],[0,1,0,0,-5],[1,0,0,0,5],[1,1,0,0,-5]];perimeter=orthogonalPerimeter;outlineConnect=0;targetShapes=umlLifeline;portConstraint=eastwest;newEdgeStyle={&quot;curved&quot;:0,&quot;rounded&quot;:0};" parent="rz1pc4IVNlFVUv6zrd2w-2" vertex="1">
          <mxGeometry x="45" y="120" width="10" height="310" as="geometry" />
        </mxCell>
        <mxCell id="rz1pc4IVNlFVUv6zrd2w-44" value="" style="html=1;points=[[0,0,0,0,5],[0,1,0,0,-5],[1,0,0,0,5],[1,1,0,0,-5]];perimeter=orthogonalPerimeter;outlineConnect=0;targetShapes=umlLifeline;portConstraint=eastwest;newEdgeStyle={&quot;curved&quot;:0,&quot;rounded&quot;:0};" parent="rz1pc4IVNlFVUv6zrd2w-2" vertex="1">
          <mxGeometry x="50" y="180" width="10" height="30" as="geometry" />
        </mxCell>
        <mxCell id="rz1pc4IVNlFVUv6zrd2w-45" value="Lấy thông tin khóa học từ cache" style="html=1;align=left;spacingLeft=2;endArrow=block;rounded=0;edgeStyle=orthogonalEdgeStyle;curved=0;rounded=0;" parent="rz1pc4IVNlFVUv6zrd2w-2" source="rz1pc4IVNlFVUv6zrd2w-32" target="rz1pc4IVNlFVUv6zrd2w-44" edge="1">
          <mxGeometry relative="1" as="geometry">
            <mxPoint x="55" y="170" as="sourcePoint" />
            <Array as="points">
              <mxPoint x="85" y="170" />
              <mxPoint x="85" y="190" />
            </Array>
          </mxGeometry>
        </mxCell>
        <mxCell id="rz1pc4IVNlFVUv6zrd2w-6" value="MISA Application Client" style="shape=umlLifeline;perimeter=lifelinePerimeter;whiteSpace=wrap;html=1;container=1;dropTarget=0;collapsible=0;recursiveResize=0;outlineConnect=0;portConstraint=eastwest;newEdgeStyle={&quot;curved&quot;:0,&quot;rounded&quot;:0};fillColor=#f8cecc;strokeColor=#b85450;" parent="1" vertex="1">
          <mxGeometry x="130" y="50" width="100" height="990" as="geometry" />
        </mxCell>
        <mxCell id="rz1pc4IVNlFVUv6zrd2w-7" value="" style="html=1;points=[[0,0,0,0,5],[0,1,0,0,-5],[1,0,0,0,5],[1,1,0,0,-5]];perimeter=orthogonalPerimeter;outlineConnect=0;targetShapes=umlLifeline;portConstraint=eastwest;newEdgeStyle={&quot;curved&quot;:0,&quot;rounded&quot;:0};" parent="rz1pc4IVNlFVUv6zrd2w-6" vertex="1">
          <mxGeometry x="46" y="510" width="10" height="458" as="geometry" />
        </mxCell>
        <mxCell id="rz1pc4IVNlFVUv6zrd2w-30" value="" style="html=1;points=[[0,0,0,0,5],[0,1,0,0,-5],[1,0,0,0,5],[1,1,0,0,-5]];perimeter=orthogonalPerimeter;outlineConnect=0;targetShapes=umlLifeline;portConstraint=eastwest;newEdgeStyle={&quot;curved&quot;:0,&quot;rounded&quot;:0};" parent="rz1pc4IVNlFVUv6zrd2w-6" vertex="1">
          <mxGeometry x="46" y="110" width="10" height="340" as="geometry" />
        </mxCell>
        <mxCell id="rz1pc4IVNlFVUv6zrd2w-8" value="Xác nhận" style="html=1;verticalAlign=bottom;startArrow=oval;endArrow=block;startSize=8;curved=0;rounded=0;entryX=0;entryY=0;entryDx=0;entryDy=5;" parent="1" source="rz1pc4IVNlFVUv6zrd2w-1" target="rz1pc4IVNlFVUv6zrd2w-7" edge="1">
          <mxGeometry x="-0.0384" relative="1" as="geometry">
            <mxPoint x="48.68181818181847" y="577.0000000000005" as="sourcePoint" />
            <mxPoint as="offset" />
          </mxGeometry>
        </mxCell>
        <mxCell id="rz1pc4IVNlFVUv6zrd2w-9" value="return" style="html=1;verticalAlign=bottom;endArrow=open;dashed=1;endSize=8;curved=0;rounded=0;" parent="1" source="rz1pc4IVNlFVUv6zrd2w-3" target="rz1pc4IVNlFVUv6zrd2w-7" edge="1">
          <mxGeometry relative="1" as="geometry">
            <mxPoint x="185" y="794" as="targetPoint" />
            <Array as="points">
              <mxPoint x="390" y="880" />
            </Array>
            <mxPoint x="474.9999999999998" y="794" as="sourcePoint" />
          </mxGeometry>
        </mxCell>
        <mxCell id="rz1pc4IVNlFVUv6zrd2w-10" value="CRM MISA" style="shape=umlLifeline;perimeter=lifelinePerimeter;whiteSpace=wrap;html=1;container=1;dropTarget=0;collapsible=0;recursiveResize=0;outlineConnect=0;portConstraint=eastwest;newEdgeStyle={&quot;curved&quot;:0,&quot;rounded&quot;:0};fillColor=#dae8fc;strokeColor=#6c8ebf;" parent="1" vertex="1">
          <mxGeometry x="930" y="50" width="100" height="1190" as="geometry" />
        </mxCell>
        <mxCell id="rz1pc4IVNlFVUv6zrd2w-11" value="" style="html=1;points=[[0,0,0,0,5],[0,1,0,0,-5],[1,0,0,0,5],[1,1,0,0,-5]];perimeter=orthogonalPerimeter;outlineConnect=0;targetShapes=umlLifeline;portConstraint=eastwest;newEdgeStyle={&quot;curved&quot;:0,&quot;rounded&quot;:0};" parent="rz1pc4IVNlFVUv6zrd2w-10" vertex="1">
          <mxGeometry x="45" y="745" width="10" height="50" as="geometry" />
        </mxCell>
        <mxCell id="rz1pc4IVNlFVUv6zrd2w-12" value="" style="html=1;points=[[0,0,0,0,5],[0,1,0,0,-5],[1,0,0,0,5],[1,1,0,0,-5]];perimeter=orthogonalPerimeter;outlineConnect=0;targetShapes=umlLifeline;portConstraint=eastwest;newEdgeStyle={&quot;curved&quot;:0,&quot;rounded&quot;:0};" parent="1" vertex="1">
          <mxGeometry x="180" y="980" width="10" height="30" as="geometry" />
        </mxCell>
        <mxCell id="rz1pc4IVNlFVUv6zrd2w-13" value="Thư viện lưu thông tin cho phép hiện popup vào browser cache" style="html=1;align=left;spacingLeft=2;endArrow=block;rounded=0;edgeStyle=orthogonalEdgeStyle;curved=0;rounded=0;" parent="1" target="rz1pc4IVNlFVUv6zrd2w-12" edge="1">
          <mxGeometry relative="1" as="geometry">
            <mxPoint x="185" y="970.0285714285715" as="sourcePoint" />
            <Array as="points">
              <mxPoint x="210" y="970" />
              <mxPoint x="210" y="990" />
            </Array>
            <mxPoint as="offset" />
          </mxGeometry>
        </mxCell>
        <mxCell id="rz1pc4IVNlFVUv6zrd2w-14" value="Gọi API cập nhật thông tin đào tạo của người dùng" style="html=1;verticalAlign=bottom;endArrow=block;curved=0;rounded=0;" parent="1" source="rz1pc4IVNlFVUv6zrd2w-7" target="rz1pc4IVNlFVUv6zrd2w-3" edge="1">
          <mxGeometry relative="1" as="geometry">
            <mxPoint x="185" y="584" as="sourcePoint" />
            <Array as="points">
              <mxPoint x="350" y="584" />
            </Array>
            <mxPoint as="offset" />
          </mxGeometry>
        </mxCell>
        <mxCell id="rz1pc4IVNlFVUv6zrd2w-15" value="LMS Server" style="shape=umlLifeline;perimeter=lifelinePerimeter;whiteSpace=wrap;html=1;container=1;dropTarget=0;collapsible=0;recursiveResize=0;outlineConnect=0;portConstraint=eastwest;newEdgeStyle={&quot;curved&quot;:0,&quot;rounded&quot;:0};fillColor=#d5e8d4;strokeColor=#82b366;" parent="1" vertex="1">
          <mxGeometry x="760" y="50" width="100" height="990" as="geometry" />
        </mxCell>
        <mxCell id="rz1pc4IVNlFVUv6zrd2w-16" value="" style="html=1;points=[[0,0,0,0,5],[0,1,0,0,-5],[1,0,0,0,5],[1,1,0,0,-5]];perimeter=orthogonalPerimeter;outlineConnect=0;targetShapes=umlLifeline;portConstraint=eastwest;newEdgeStyle={&quot;curved&quot;:0,&quot;rounded&quot;:0};" parent="rz1pc4IVNlFVUv6zrd2w-15" vertex="1">
          <mxGeometry x="45" y="614" width="10" height="76" as="geometry" />
        </mxCell>
        <mxCell id="rz1pc4IVNlFVUv6zrd2w-17" value="redirect" style="html=1;verticalAlign=bottom;endArrow=block;curved=0;rounded=0;" parent="1" target="rz1pc4IVNlFVUv6zrd2w-23" edge="1">
          <mxGeometry width="80" relative="1" as="geometry">
            <mxPoint x="185" y="939.9999999999998" as="sourcePoint" />
            <mxPoint x="704.9999999999998" y="940" as="targetPoint" />
          </mxGeometry>
        </mxCell>
        <mxCell id="rz1pc4IVNlFVUv6zrd2w-18" value="Gọi API đăng ký khóa học" style="html=1;verticalAlign=bottom;endArrow=block;curved=0;rounded=0;entryX=0;entryY=0;entryDx=0;entryDy=5;" parent="1" source="rz1pc4IVNlFVUv6zrd2w-3" target="rz1pc4IVNlFVUv6zrd2w-16" edge="1">
          <mxGeometry relative="1" as="geometry">
            <mxPoint x="465" y="748" as="sourcePoint" />
          </mxGeometry>
        </mxCell>
        <mxCell id="rz1pc4IVNlFVUv6zrd2w-19" value="return" style="html=1;verticalAlign=bottom;endArrow=open;dashed=1;endSize=8;curved=0;rounded=0;" parent="1" source="rz1pc4IVNlFVUv6zrd2w-16" target="rz1pc4IVNlFVUv6zrd2w-3" edge="1">
          <mxGeometry x="0.0003" relative="1" as="geometry">
            <mxPoint x="465" y="764" as="targetPoint" />
            <mxPoint x="909.9999999999998" y="764" as="sourcePoint" />
            <mxPoint as="offset" />
            <Array as="points">
              <mxPoint x="630" y="740" />
            </Array>
          </mxGeometry>
        </mxCell>
        <mxCell id="rz1pc4IVNlFVUv6zrd2w-20" value="Gửi dữ liệu sinh thẻ đào tạo" style="html=1;verticalAlign=bottom;endArrow=block;curved=0;rounded=0;" parent="1" target="rz1pc4IVNlFVUv6zrd2w-11" edge="1">
          <mxGeometry relative="1" as="geometry">
            <mxPoint x="465" y="795" as="sourcePoint" />
            <Array as="points">
              <mxPoint x="920" y="795" />
            </Array>
          </mxGeometry>
        </mxCell>
        <mxCell id="rz1pc4IVNlFVUv6zrd2w-21" value="return" style="html=1;verticalAlign=bottom;endArrow=open;dashed=1;endSize=8;curved=0;rounded=0;" parent="1" source="rz1pc4IVNlFVUv6zrd2w-11" edge="1">
          <mxGeometry relative="1" as="geometry">
            <mxPoint x="465" y="845" as="targetPoint" />
            <Array as="points">
              <mxPoint x="885" y="845" />
            </Array>
            <mxPoint x="980" y="835" as="sourcePoint" />
          </mxGeometry>
        </mxCell>
        <mxCell id="rz1pc4IVNlFVUv6zrd2w-22" value="LMS Client" style="shape=umlLifeline;perimeter=lifelinePerimeter;whiteSpace=wrap;html=1;container=1;dropTarget=0;collapsible=0;recursiveResize=0;outlineConnect=0;portConstraint=eastwest;newEdgeStyle={&quot;curved&quot;:0,&quot;rounded&quot;:0};fillColor=#d5e8d4;strokeColor=#82b366;" parent="1" vertex="1">
          <mxGeometry x="590" y="50" width="100" height="990" as="geometry" />
        </mxCell>
        <mxCell id="rz1pc4IVNlFVUv6zrd2w-23" value="" style="html=1;points=[[0,0,0,0,5],[0,1,0,0,-5],[1,0,0,0,5],[1,1,0,0,-5]];perimeter=orthogonalPerimeter;outlineConnect=0;targetShapes=umlLifeline;portConstraint=eastwest;newEdgeStyle={&quot;curved&quot;:0,&quot;rounded&quot;:0};" parent="rz1pc4IVNlFVUv6zrd2w-22" vertex="1">
          <mxGeometry x="45" y="890" width="10" height="20" as="geometry" />
        </mxCell>
        <mxCell id="rz1pc4IVNlFVUv6zrd2w-31" value="Chọn học với giảng viên" style="html=1;verticalAlign=bottom;startArrow=oval;endArrow=block;startSize=8;curved=0;rounded=0;entryX=0;entryY=0;entryDx=0;entryDy=5;" parent="1" source="rz1pc4IVNlFVUv6zrd2w-1" target="rz1pc4IVNlFVUv6zrd2w-30" edge="1">
          <mxGeometry relative="1" as="geometry">
            <mxPoint x="106" y="165" as="sourcePoint" />
          </mxGeometry>
        </mxCell>
        <mxCell id="rz1pc4IVNlFVUv6zrd2w-33" value="Gọi API lấy thông tin các khóa đào tạo theo SP" style="html=1;verticalAlign=bottom;endArrow=block;curved=0;rounded=0;entryX=0;entryY=0;entryDx=0;entryDy=5;" parent="1" source="rz1pc4IVNlFVUv6zrd2w-30" target="rz1pc4IVNlFVUv6zrd2w-32" edge="1">
          <mxGeometry relative="1" as="geometry">
            <mxPoint x="385" y="175" as="sourcePoint" />
          </mxGeometry>
        </mxCell>
        <mxCell id="rz1pc4IVNlFVUv6zrd2w-34" value="return" style="html=1;verticalAlign=bottom;endArrow=open;dashed=1;endSize=8;curved=0;rounded=0;" parent="1" source="rz1pc4IVNlFVUv6zrd2w-32" target="rz1pc4IVNlFVUv6zrd2w-30" edge="1">
          <mxGeometry relative="1" as="geometry">
            <mxPoint x="180" y="479.9999999999998" as="targetPoint" />
            <mxPoint x="449" y="479.9999999999998" as="sourcePoint" />
            <Array as="points">
              <mxPoint x="310" y="480" />
            </Array>
          </mxGeometry>
        </mxCell>
        <mxCell id="rz1pc4IVNlFVUv6zrd2w-35" value="alt" style="shape=umlFrame;whiteSpace=wrap;html=1;pointerEvents=0;" parent="1" vertex="1">
          <mxGeometry x="360" y="285" width="520" height="165" as="geometry" />
        </mxCell>
        <mxCell id="rz1pc4IVNlFVUv6zrd2w-36" value="" style="html=1;points=[[0,0,0,0,5],[0,1,0,0,-5],[1,0,0,0,5],[1,1,0,0,-5]];perimeter=orthogonalPerimeter;outlineConnect=0;targetShapes=umlLifeline;portConstraint=eastwest;newEdgeStyle={&quot;curved&quot;:0,&quot;rounded&quot;:0};" parent="1" vertex="1">
          <mxGeometry x="805" y="325" width="10" height="50" as="geometry" />
        </mxCell>
        <mxCell id="rz1pc4IVNlFVUv6zrd2w-37" value="dispatch" style="html=1;verticalAlign=bottom;endArrow=block;curved=0;rounded=0;entryX=0;entryY=0;entryDx=0;entryDy=5;" parent="1" target="rz1pc4IVNlFVUv6zrd2w-36" edge="1">
          <mxGeometry relative="1" as="geometry">
            <mxPoint x="465" y="330" as="sourcePoint" />
          </mxGeometry>
        </mxCell>
        <mxCell id="rz1pc4IVNlFVUv6zrd2w-38" value="return" style="html=1;verticalAlign=bottom;endArrow=open;dashed=1;endSize=8;curved=0;rounded=0;exitX=0;exitY=1;exitDx=0;exitDy=-5;" parent="1" source="rz1pc4IVNlFVUv6zrd2w-36" edge="1">
          <mxGeometry relative="1" as="geometry">
            <mxPoint x="465" y="370" as="targetPoint" />
          </mxGeometry>
        </mxCell>
        <mxCell id="rz1pc4IVNlFVUv6zrd2w-39" value="[Cache miss]" style="text;html=1;align=center;verticalAlign=middle;resizable=0;points=[];autosize=1;fillColor=default;" parent="1" vertex="1">
          <mxGeometry x="421" y="285" width="90" height="30" as="geometry" />
        </mxCell>
        <mxCell id="rz1pc4IVNlFVUv6zrd2w-42" value="" style="html=1;points=[[0,0,0,0,5],[0,1,0,0,-5],[1,0,0,0,5],[1,1,0,0,-5]];perimeter=orthogonalPerimeter;outlineConnect=0;targetShapes=umlLifeline;portConstraint=eastwest;newEdgeStyle={&quot;curved&quot;:0,&quot;rounded&quot;:0};" parent="1" vertex="1">
          <mxGeometry x="460" y="410" width="10" height="30" as="geometry" />
        </mxCell>
        <mxCell id="rz1pc4IVNlFVUv6zrd2w-43" value="Set cache" style="html=1;align=left;spacingLeft=2;endArrow=block;rounded=0;edgeStyle=orthogonalEdgeStyle;curved=0;rounded=0;" parent="1" source="rz1pc4IVNlFVUv6zrd2w-32" target="rz1pc4IVNlFVUv6zrd2w-42" edge="1">
          <mxGeometry relative="1" as="geometry">
            <mxPoint x="465" y="390" as="sourcePoint" />
            <Array as="points">
              <mxPoint x="495" y="400" />
              <mxPoint x="495" y="420" />
            </Array>
          </mxGeometry>
        </mxCell>
      </root>
    </mxGraphModel>
  </diagram>
  <diagram id="ogG_3AUHFMLvdlV5NrIc" name="Page-8">
    <mxGraphModel dx="1434" dy="793" grid="1" gridSize="10" guides="1" tooltips="1" connect="1" arrows="1" fold="1" page="1" pageScale="1" pageWidth="1100" pageHeight="850" math="0" shadow="0">
      <root>
        <mxCell id="0" />
        <mxCell id="1" parent="0" />
      </root>
    </mxGraphModel>
  </diagram>
</mxfile>
